<?xml version="1.0" encoding="UTF-8"?>
<svg viewBox="0 0 1052.3622 744.09448" xmlns="http://www.w3.org/2000/svg">
 <path d="m972.51 409.54c-0.9006 0.0621-4.2608-36.374-9.354-99.946-9.8366-33.591-21.846-75.04-35.612-122.9-0.31066-1.1234-0.92471-2.2432-1.7043-3.3132l-2e-5 -3e-5c-0.89139-1.2184-2.0568-2.3383-3.3649-3.4072-3.2715-2.6754-7.3071-4.6832-11.619-6.5164-5.7209-2.4087-11.768-4.3206-18.055-5.9218s-12.814-2.8918-19.475-4.0986c-14.962-2.6881-30.571-4.5668-46.694-6.0563-14.516-1.3394-29.43-2.3314-44.699-3.0716-22.502-1.0893-45.717-2.1062-69.555-2.6991s-48.299-0.76111-73.29-0.0557c-47.414 1.3381-96.8 5.9214-146.67 15.976-1.5813 0.23238-3.275 1.3347-5.0068 2.702l-4e-5 3e-5c-2.0024 1.6557-3.7765 3.8258-5.4916 6.2179-3.6011 5.0651-6.4185 10.867-8.9372 16.948-3.8229 9.2084-5.7276 19.44-7.3064 29.948-0.73251 4.9566-1.3284 9.9542-1.8174 14.985-0.65137 6.7015-1.1095 13.421-1.4516 20.14-0.19662 13.931-0.3944 27.769-0.59315 41.504-0.0171 32.922-0.048 65.257-0.0916 96.871-0.9063 43.578-1.7779 85.793-2.5749 126.31l2.3207-0.30969c1.4754-13.141 3.5004-26.267 6.7376-38.855s7.6869-24.639 13.867-35.726c4.3511-7.6345 9.8184-14.906 16.948-20.466 5.67-4.4373 12.665-7.3892 20.085-7.6961 7.7169-0.15957 14.918 2.4776 20.834 6.3985 8.0008 5.2666 14.207 12.27 19.323 19.47 8.7354 12.243 15.156 25.263 20.271 38.293s8.9252 26.071 12.188 38.567c-0.0548-0.40203-0.39412-0.77056-1.032-1.2426-0.60507-0.20394-0.85749-0.30925-0.85223-0.22188 0.23498 0.0756 0.77337-0.29682 1.6035-0.73229 0.84471-0.54914 1.5941-1.1777 2.1624-1.8823l1e-5 -3e-5c0.38291-0.73126 0.76318-0.99074 0.56495-0.75055 2e-3 -14.562-3.0005-28.446-7.4004-41.026-5.0885-14.514-12.116-27.311-20.072-38.106-4.4739-6.06-9.2449-11.508-14.19-16.25s-10.063-8.7774-15.233-12.11c-6.1882-3.9838-12.477-6.9292-18.489-8.8972s-11.751-2.9643-17.008-3.2313c-23.951-1.2338-36.885-2.1556-36.868-2.6925s12.983-0.64935 36.964-0.38525c5.5355 0.0702 11.616 0.89707 18.008 2.7522s13.098 4.7443 19.7 8.7687c5.501 3.3494 10.961 7.4324 16.239 12.252s10.374 10.378 15.138 16.581c8.4902 11.036 16.05 24.199 21.602 39.232 4.8198 13.022 8.1833 27.556 8.423 43.058-0.1811 2.4049-1.048 4.1296-2.0289 5.0978l-3e-5 3e-5c-1.0825 1.3526-2.3583 2.4845-3.742 3.385-1.0755 0.80422-2.6246 1.5529-4.6663 1.8612-0.79467 0.16912-1.8917 9e-3 -3.2038-0.58172-1.3154-0.84268-2.114-1.9064-2.3706-3.0556-3.4351-12.306-7.3302-25.044-12.406-37.615s-11.332-24.977-19.74-36.405c-4.9196-6.6571-10.49-12.929-17.332-17.244-4.9509-3.0938-10.597-5.2224-16.094-4.9191-5.2628 0.13726-10.588 2.5599-15.143 6.0664-5.9008 4.5628-10.566 11.021-14.609 18.061-6.4148 10.928-11.22 22.956-14.952 35.688s-6.3908 26.167-8.6559 39.813l-11.523-0.30969c-0.79701-41.895-1.6686-85.679-2.5749-130.95-0.0437-31.636-0.0745-63.994-0.0916-96.94 0.18631-13.819 0.37646-27.741 0.57038-41.756 0.34354-6.8712 0.81281-13.78 1.4852-20.707 0.50479-5.2007 1.1219-10.388 1.8811-15.554 1.5587-10.784 3.6869-21.803 7.9675-32.288 2.6552-6.4923 5.8408-12.948 10.035-18.903 1.985-2.8385 4.3379-5.631 7.2231-8.0823l6e-5 -4e-5c2.4788-2.1708 5.6574-3.9815 9.4512-4.8282 50.562-10.108 100.52-14.608 148.38-15.749 25.215-0.60121 49.84-0.31027 73.791 0.42233s47.229 1.9063 69.754 3.1679c15.366 0.85925 30.398 1.9819 45.047 3.4619 16.256 1.6407 32.087 3.7027 47.325 6.5978 6.7416 1.271 13.443 2.6737 19.983 4.4276s12.918 3.8588 19.033 6.4937c4.626 1.9755 9.2367 4.4037 13.307 7.7394 1.6561 1.3582 3.225 2.9409 4.5717 4.7855l3e-5 4e-5c1.2064 1.648 2.1717 3.5452 2.7618 5.6344 13.196 48.309 24.53 90.119 33.606 123.98 3.7143 64.137 5.3903 100.72 4.4897 100.79z" fill-rule="evenodd"/>
 <path d="m636.81 478.76c-0.0519-2.7595 82.34-6.5496 183.91-8.46s184.05-1.2213 184.1 1.5382-82.34 6.5496-183.91 8.46-184.05 1.2213-184.1-1.5382z" fill-rule="evenodd"/>
 <path d="m646.04 515.67c-0.0969-2.7583 80.708-7.8395 180.37-11.342s180.62-4.1064 180.72-1.3481-80.708 7.8395-180.37 11.342-180.62 4.1064-180.72 1.3481z" fill-rule="evenodd"/>
 <path d="m482.22 192.66c-0.10437-0.9393 11.332-3.0988 31.216-6.0566s48.213-6.7137 81.982-10.867c8.8761-3.4379 18.155-7.009 27.776-10.689 23.982-1.2402 49.985-1.9889 77.127-1.927 23.363 0.0533 45.895 0.70718 67.029 1.8386h2e-5c22.43 1.2292 43.302 2.9984 61.944 5.0844s35.053 4.4835 48.62 6.8196 24.291 4.6008 31.597 6.3898 11.196 3.0897 11.093 3.6391-4.1907 0.30585-11.644-0.48997-18.276-2.1313-31.879-3.6312-29.99-3.1541-48.56-4.6248-39.325-2.7526-61.624-3.6588h-2e-5c-20.793-0.87017-42.925-1.4095-65.891-1.5128-26.681-0.11999-52.269 0.35409-75.962 1.153-9.5442 3.5064-18.764 6.872-27.599 10.076-34.28 3.4079-63.055 5.997-83.264 7.4939s-31.854 1.902-31.958 0.96272z" fill-rule="evenodd"/>
 <path d="m469.53 308.02c-0.0883-2.3248 77.362-7.2227 182.26-11.76h1e-5c19.542 0.48805 40.035 1.0534 61.152 1.6929 67.227 2.0359 128.12 4.4397 172.18 6.6794s71.291 4.3154 71.249 5.6947-27.341 1.8026-71.407 1.3718-104.9-1.7154-172.05-3.7516c-21.094-0.63961-41.563-1.3155-61.085-2.0112h-2e-5c-104.71 3.4224-182.2 4.4086-182.29 2.0838z" fill-rule="evenodd"/>
 <path d="m505.29 201.89c0.14118 1.4824-9.1013 3.7064-23.871 6.0335-0.80982 0.0606-1.766 1.0312-2.782 2.1737-0.79998 1.2268-1.4534 2.5052-1.2616 3.4022 0.21919 10.287 0.24465 22.09 0.0356 34.634-0.20887 12.532-0.62706 24.318-1.1881 34.584-0.17488 0.79886 0.0675 1.733 0.51293 2.7031s1.0942 1.9759 1.7826 2.9368c0.79312 0.92789 1.5506 1.6833 2.3216 2.0893 0.64817 0.30412 1.223 0.56845 1.5157 0.48371 11.717-2.7261 19.082-3.7733 19.474-2.518s-6.258 4.5878-17.442 9.0184c-2.2177 0.69975-4.5332 0.61015-6.4946-0.22343-1.9883-0.79705-3.7504-2.0071-5.1654-3.4451-1.3381-1.2106-2.5856-2.7467-3.5411-4.6139s-1.619-4.0656-1.7387-6.5773c-0.21863-10.28-0.24385-22.073-0.035-34.605 0.20906-12.544 0.62784-24.34 1.1897-34.613 0.26814-3.6869 1.8334-6.5932 3.8129-8.6016 1.9662-2.3287 4.9553-3.9461 8.2944-4.2806 14.944-0.50284 24.44-0.0634 24.581 1.419z" fill-rule="evenodd"/>
 <path d="m517.98 291.87c-0.10178-2.2136 41.921-6.0284 100.15-9.3616 0.2631 0.0733 0.79511-0.30299 1.3743-0.75479 0.73163-0.62179 1.3481-1.6748 1.9603-2.9183 1.1373-2.685 1.8086-5.5769 1.2616-7.9888-1.1928-7.438-2.3883-15.072-3.5876-22.862-2.7165-17.643-5.2248-34.566-7.5565-50.267-26.439 2.0309-49.105 3.4129-65.303 3.9236s-25.924 0.15302-25.99-0.90907 9.6118-2.6175 26.477-4.1478 40.921-3.0322 69.119-4.374c3.5688 16.26 7.4684 34.047 11.449 52.678 1.7573 8.2254 3.4622 16.301 5.0945 24.166 0.83292 5.0626-0.17081 9.9088-2.1796 13.912-0.95075 2.0792-2.3691 4.1441-4.3288 5.937-1.854 1.7312-4.3994 2.8769-7.3536 3.0982-58.288 2.0238-100.48 2.0811-100.58-0.13252z" fill-rule="evenodd"/>
 <path d="m659.88 177.66c0-1.7886 48.406-3.3588 121.13-4.2426 2.9509 0.0246 5.7142 0.89472 8.0146 2.3687l2e-5 1e-5c2.3777 1.5162 4.3285 3.4208 5.8839 5.4568 3.1388 4.0355 5.3938 8.7741 6.6452 13.807 6.6317 26.21 13.788 54.953 21.213 85.26 0.54619 2.8893-6e-3 5.5098-1.3863 7.498l-3e-5 4e-5c-1.4128 2.0461-3.0787 3.5029-4.7131 4.4613-3.2124 2.1174-7.186 3.4666-11.526 3.4455l-4.6734-0.0882c-41.908-0.79825-81.482-1.7472-116.45-2.7593-6.3846-0.15356-12.759-1.2824-18.62-3.6618-2.9047-1.149-5.804-2.8125-8.3116-5.1734-2.4278-2.2898-4.129-5.3766-4.6901-8.8524-4.9545-35.761-8.6818-64.661-10.738-83.36-0.25285-2.4898 0.46899-4.6647 1.5272-6.3392 1.3364-2.1384 3.0166-3.6252 4.6102-4.7271 1.5712-1.002 3.135-1.7319 4.5545-2.2357s2.6964-0.78514 3.764-0.93404 1.9275-0.16825 2.5574-0.14424 1.0309 0.0894 1.2043 0.15054v0.1406c-0.33976 0.12229-1.5378 0.21833-3.3541 0.90015-0.90814 0.3409-1.9703 0.83861-3.1334 1.5738s-2.4288 1.7116-3.7043 2.9492c-1.2405 1.1279-2.4854 2.4804-3.2701 4.1332-0.57353 1.242-0.93758 2.671-0.6221 3.9011 3.621 18.459 8.693 47.154 14.642 82.763 0.18285 1.3936 1.1307 2.8433 2.3755 4.0248 1.4386 1.369 3.468 2.3864 5.7414 3.2957 4.7202 1.8267 10.076 2.6052 15.636 2.6791 34.979 0.32018 74.56 0.87896 116.47 1.6772l4.6734 0.0898c1.8733 0.0972 4.014-0.73111 6.0128-1.8972 0.84525-0.604 1.4973-1.0546 1.6759-1.4539v-1e-5c-3e-3 -0.12912 0.11396-0.14681 0.0655 0.2978-7.3247-30.331-14.17-59.15-20.318-85.478-0.92436-3.9118-2.5525-7.583-4.8233-10.609-1.1199-1.4565-2.2793-2.7087-3.5476-3.5095h-1e-5c-1.1345-0.70894-2.3407-1.1898-3.3871-1.1653-72.725-0.88373-121.13-2.454-121.13-4.2426z" fill-rule="evenodd"/>
 <path d="m951.75 282.64c0.137-0.0348 0.34261 0.17609 0.57252 0.65334s0.48166 1.2232 0.63893 2.2458 0.21598 2.3252 0.0375 3.8602-0.59946 3.3062-1.3544 5.155c-0.65808 1.7043-1.6642 3.5987-3.4408 5.2883-1.3781 1.3241-3.3824 2.3383-5.8604 2.2923-18.862-0.63613-48.768-2.3168-85.541-4.8005-4.8549-0.32191-9.8192-1.5889-14.44-3.996-4.3881-2.0853-8.6248-5.986-10.456-11.871-6.478-24.578-13.45-51.551-20.623-79.865-0.55637-2.1962-1.11-4.3848-1.6607-6.5652-0.68676-3.4398-5e-3 -6.5665 1.5643-8.914 1.6567-2.5689 3.7333-4.4749 5.8574-5.8252 4.1046-2.9672 9.5901-4.8235 15.509-4.065 31.589 5.1622 60.92 10.128 86.401 14.605 4.8977 0.94252 8.8445 3.5664 11.679 6.6963 3.0828 3.2519 5.2982 7.2342 6.3291 11.494 10.412 44.723 16.254 73.239 14.787 73.611s-9.9395-27.475-22.129-71.747c-0.76314-2.8038-2.4709-5.5179-4.7376-7.8045-2.1672-2.0489-4.7016-3.7508-7.2486-3.9995-25.606-3.697-55.022-8.1307-86.644-13.082-2.3471-0.56408-5.4312 0.81189-8.41 2.577-1.2896 0.93023-2.3792 1.8261-2.8934 2.7788-0.28059 0.6536-0.55911 1.221-0.37471 1.22l1.6654 6.564c7.1729 28.314 13.884 55.353 19.889 80.051 0.24952 2.329 2.9078 4.4403 5.7393 6.2252 3.3359 1.8579 7.1195 2.91 10.896 3.2879 36.693 3.473 66.479 6.6322 85.197 9.0431 0.90809 0.2286 2.0434-0.2481 2.9741-0.88754 1.3146-0.93941 2.2686-2.338 3.0476-3.6881 0.83667-1.5339 1.4474-2.9945 1.8554-4.2826s0.61876-2.4072 0.73566-3.3224 0.14463-1.6288 0.19-2.1244 0.11166-0.77433 0.24866-0.80912z" fill-rule="evenodd"/>
 <path d="m751.02 468.38c-2.0219 0.0986-6.605-58.047-11.472-141.68-0.15528-3.6856 0.6491-7.1939 2.0362-10.263 1.4416-3.2856 3.4488-6.2922 5.8703-8.9063 2.3326-2.5533 5.1558-4.8204 8.4507-6.5227 2.9696-1.5766 6.5183-2.5509 10.388-2.4122 20.637 1.065 42.379 2.2489 64.831 3.5371 26.52 1.5216 52.04 3.0747 75.908 4.6082 4.5677 0.31845 8.7592 1.9786 12.186 4.4507 3.5994 2.2183 6.6034 6.312 7.1227 11.68 1.9447 85.547 2.0811 145.44 0.0308 145.5s-5.713-59.714-9.1983-145.21c0.31233-1.1525-1.4333-2.7134-3.3022-4.3133-2.2658-1.5031-4.8697-2.5409-7.3833-2.6287-23.887-1.2066-49.418-2.5826-75.937-4.1042-22.452-1.2882-44.187-2.599-64.81-3.9013-1.6782-0.17961-3.6249 0.41715-5.5434 1.3053-2.1455 1.0408-4.1153 2.6083-5.868 4.43-1.7876 1.8934-3.2683 4.0067-4.2831 6.2477-0.91351 2.1067-1.5142 4.1956-1.3988 6.058 3.296 83.705 4.394 142.02 2.3721 142.12z" fill-rule="evenodd"/>
 <path d="m844.46 327.63c2.7584-0.0951 6.0307 29.804 7.3043 66.739s0.0686 66.988-2.6898 67.083-6.0307-29.804-7.3043-66.739-0.0686-66.988 2.6898-67.083z" fill-rule="evenodd"/>
 <path d="m760.25 326.48c0.0652-2.7592 32.937-4.2234 73.374-3.2682s73.203 3.9698 73.138 6.7291-32.937 4.2234-73.374 3.2682-73.203-3.9698-73.138-6.7291z" fill-rule="evenodd"/>
 <path d="m756.78 346.09c0.0622-2.7593 34.482-4.2235 76.829-3.2683s76.666 3.9699 76.604 6.7292-34.482 4.2235-76.829 3.2683-76.666-3.9699-76.604-6.7292z" fill-rule="evenodd"/>
 <path d="m761.4 363.39c0.0421-2.7597 33.929-4.4826 75.639-3.8458s75.529 3.3934 75.487 6.153-33.929 4.4826-75.639 3.8458-75.529-3.3934-75.487-6.153z" fill-rule="evenodd"/>
 <path d="m760.25 380.7c0.0418-2.7597 34.186-4.4826 76.216-3.8458s76.106 3.3934 76.064 6.1531-34.186 4.4826-76.216 3.8458-76.106-3.3934-76.064-6.1531z" fill-rule="evenodd"/>
 <path d="m761.4 400.31c-0.0211-2.7599 33.814-5.2583 75.525-5.5767s75.58 1.6631 75.601 4.423-33.814 5.2583-75.525 5.5767-75.58-1.6631-75.601-4.423z" fill-rule="evenodd"/>
 <path d="m759.09 416.46c0-2.76 34.111-5 76.14-5s76.14 2.24 76.14 5-34.111 5-76.14 5-76.14-2.24-76.14-5z" fill-rule="evenodd"/>
 <path d="m772.94 431.46c0-2.76 29.718-5 66.334-5s66.334 2.24 66.334 5-29.718 5-66.334 5-66.334-2.24-66.334-5z" fill-rule="evenodd"/>
 <path d="m781.01 451.07c-0.0506-2.7595 28.075-5.516 62.781-6.1528s62.914 1.086 62.965 3.8455-28.075 5.516-62.781 6.1528-62.914-1.086-62.965-3.8455z" fill-rule="evenodd"/>
 <path d="m785.63 462.61c-0.0271-2.7599 26.309-5.2582 58.786-5.5766s58.857 1.6631 58.884 4.4229-26.309 5.2582-58.786 5.5766-58.857-1.6631-58.884-4.4229z" fill-rule="evenodd"/>
 <path d="m947.13 414.15c-0.0836-1.7562 9.4914-3.761 24.027-5.3457 3.1069-0.20707 6.2604 0.69813 8.8006 2.6973 2.5201 2.0325 4.3966 4.6011 5.6362 7.223 2.4946 5.0867 3.8334 10.874 4.1971 16.706 0.0653 1.0477 0.0998 2.0832 0.10825 3.1029 0.0928 3.4724-0.12081 6.9693-0.71076 10.335s-1.5564 6.5993-2.8944 9.5762c-1.158 2.6746-2.9425 5.2783-5.3207 7.3304-2.4466 2.0682-5.5056 3.0252-8.4631 2.9224-11.301-0.91713-18.458-2.2742-18.458-3.7876s7.1572-2.8704 18.458-3.7876c0.94776-0.10287 2.0032-0.74214 2.7951-1.6065 1.0106-1.0166 1.7594-2.6452 2.5276-4.5953 0.84594-2.2665 1.4072-4.7791 1.7292-7.4955s0.4059-5.6366 0.35406-8.6697c-0.0341-0.89004-0.0794-1.7822-0.14026-2.6731-0.33859-4.9591-1.1628-9.5018-2.8402-13.286-0.86812-1.8598-1.6914-3.4114-2.7334-4.3168-0.78049-0.73962-1.7936-1.2728-2.6462-1.2913-14.62-0.19635-24.342-1.2823-24.426-3.0384z" fill-rule="evenodd"/>
 <path transform="matrix(.79783 0 0 1.0077 196.6 -5.7054)" d="m988.67 438.96a21.919 23.65 0 1 1 -43.838 0 21.919 23.65 0 1 1 43.838 0z" fill="#fff" stroke="#000" stroke-linecap="round" stroke-width="3.5433"/>
 <path d="m676.03 419.92c-0.0836-1.7562 9.4914-3.761 24.027-5.3457 3.1069-0.20707 6.2604 0.69813 8.8006 2.6973 2.5201 2.0325 4.3966 4.6011 5.6362 7.223 2.4946 5.0867 3.8334 10.874 4.1971 16.706 0.0653 1.0477 0.0998 2.0832 0.10825 3.1029 0.0928 3.4724-0.12081 6.9693-0.71076 10.335s-1.5564 6.5993-2.8944 9.5762c-1.158 2.6746-2.9425 5.2783-5.3207 7.3304-2.4466 2.0682-5.5056 3.0252-8.4631 2.9224-11.301-0.91713-18.458-2.2742-18.458-3.7876s7.1572-2.8704 18.458-3.7876c0.94776-0.10287 2.0032-0.74214 2.7951-1.6065 1.0106-1.0166 1.7594-2.6452 2.5276-4.5953 0.84594-2.2665 1.4072-4.7791 1.7292-7.4955s0.4059-5.6366 0.35406-8.6697c-0.0341-0.89004-0.0794-1.7822-0.14026-2.6731-0.33859-4.9591-1.1628-9.5018-2.8402-13.286-0.86812-1.8598-1.6914-3.4114-2.7334-4.3168-0.78049-0.73962-1.7936-1.2728-2.6462-1.2913-14.62-0.19635-24.342-1.2823-24.426-3.0384z" fill-rule="evenodd"/>
 <path transform="matrix(.79783 0 0 1.0077 -74.5 .06277)" d="m988.67 438.96a21.919 23.65 0 1 1 -43.838 0 21.919 23.65 0 1 1 43.838 0z" fill="#fff" stroke="#000" stroke-linecap="round" stroke-width="3.5433"/>
 <path d="m618.35 558.36c0.48566 0.0702 0.29909 4.6774-0.48202 13.216-0.41066 3.551-0.99448 7.7816-1.8529 12.629s-1.9902 10.313-3.5663 16.307c-1.1486 4.4053-2.516 9.1575-4.37 14.105s-4.1928 10.092-7.4382 15.171c-2.2845 3.6046-5.2082 7.2425-9.2345 10.134-3.4336 2.4489-7.7515 4.0036-12.434 3.9054-6.4449-0.19151-13.21 0.23123-20.324 0.8891s-14.576 1.5518-22.42 2.0675c-6.686 0.4569-13.755 0.69379-21.1-0.17693-5.9822-0.65757-12.377-2.3154-18.137-6.1282-3.1338-2.1607-5.7615-4.8268-7.951-7.677-2.5679-3.316-4.7002-6.9034-6.5217-10.581-4.3465-8.7683-7.321-18.268-9.5458-27.943-2.543-10.983-4.1723-22.394-5.0624-34.029-0.91257-11.878-1.0612-24.053-0.32419-36.379 0.5406-9.098 1.5646-18.316 3.2834-27.534 0.4616-2.4755 0.97103-4.9382 1.5309-7.3856 2.3282-10.248 5.61-20.372 10.523-29.715 4.0922-7.901 9.7368-15.374 17.375-20.677 3.5512-2.4247 7.5153-4.2444 11.706-5.3044l3e-5 -1e-5c4.4748-1.1092 9.0359-1.3255 13.424-0.8201 5.5582 0.62451 10.97 2.1919 15.929 4.6513 4.903 2.45 9.2488 5.694 12.963 9.4088 8.4268 8.4961 13.779 18.823 17.447 28.956 4.6172 12.621 6.9916 25.272 8.3611 37.275 1.639 14.268 1.8476 27.789 1.3397 40.275-0.56407 13.948-2.0522 26.669-4.0683 37.904l-1e-5 1e-5c-1.0444 5.84-2.2211 11.316-3.554 16.348s-2.8203 9.6212-4.4066 13.732l-1e-5 1e-5c-1.5097 3.9202-3.1653 7.4451-4.9858 10.418-0.78993 1.313-1.6421 2.5586-2.5635 3.655s-1.9116 2.0444-2.9516 2.814c-0.92878 0.68943-1.9597 1.2055-3.0093 1.4815-1.0958 0.2816-2.1656 0.24227-3.0902-5e-3 -1.2479-0.35081-2.1405-0.98642-2.7953-1.5926-0.96701-0.89167-1.4884-1.7095-1.7913-2.278s-0.37778-0.90145-0.27443-0.9775 0.38641 0.10753 0.86539 0.49329 1.15 0.99013 2.1116 1.5582c0.64537 0.37793 1.4257 0.7516 2.2868 0.83355 0.61896 0.0697 1.3156-0.0168 1.9854-0.28532 0.67149-0.26018 1.3418-0.72853 2.0141-1.3313 0.77775-0.69743 1.5041-1.5605 2.1925-2.58s1.338-2.1962 1.9994-3.4765c1.455-2.8795 2.7462-6.2808 3.963-10.144v-1e-5c1.273-4.0522 2.4484-8.5548 3.4829-13.495s1.9262-10.318 2.7152-16.086v-1e-5c1.5055-11.063 2.5153-23.531 2.6641-37.173 0.13021-12.21-0.40252-25.341-2.2833-39.063-1.5932-11.557-4.0506-23.534-8.5464-35.167-3.637-9.3086-8.449-18.486-15.674-25.435-3.1237-3.0328-6.6856-5.6476-10.593-7.5317-3.9291-1.9125-8.2898-3.1197-12.779-3.593-3.3668-0.34189-6.7809-0.17079-9.9772 0.66935l-2e-5 1e-5c-2.9999 0.76719-5.9116 2.1423-8.5606 3.9626-5.8712 3.9465-10.403 10.249-14.129 17.205-4.3775 8.3118-7.3324 17.624-9.5678 27.32-0.5289 2.3107-1.0108 4.6408-1.4484 6.988-1.6294 8.7402-2.6147 17.55-3.1648 26.309-0.74013 11.859-0.64746 23.589 0.16214 35.049 0.79749 11.234 2.2645 22.172 4.588 32.639 2.0696 9.2537 4.6864 18.081 8.5189 25.994 1.6002 3.3009 3.3634 6.3969 5.4317 9.122 1.7814 2.324 3.6891 4.3789 5.8247 5.8542 3.8694 2.8319 8.9766 4.1205 14.178 4.9121 6.4442 0.91594 13.022 0.7988 19.532 0.51909 7.5622-0.34427 15.003-1.0615 22.273-1.5366s14.367-0.70879 21.238-0.32131c2.8456 0.22911 5.8184-0.77664 8.2989-2.376 3.0996-1.9866 5.5945-4.954 7.8012-8.0628 3.1282-4.4478 5.4821-9.1381 7.4361-13.749s3.5063-9.1429 4.8854-13.395c1.8516-5.7448 3.2911-11.02 4.4783-15.716s2.1209-8.8129 2.8947-12.272c1.6633-8.3778 2.7885-12.848 3.2742-12.778z" fill-rule="evenodd"/>
 <path d="m782.16 529.52c0.79041-0.14619 2.5792 5.3478 5.0872 15.208 1.1927 4.249 2.6076 9.2945 4.3378 14.988s3.7754 12.036 6.2829 18.849c1.9825 5.3588 4.1955 11.028 6.8705 16.752s5.8121 11.501 9.7634 16.977c2.9626 4.0818 6.268 7.9572 10.262 10.789 3.2894 2.317 7.064 4.0247 10.84 4.2182 9.3913 0.6611 19.092 1.3752 29.014 2.1384l15.982 1.2575c3.8857 0.38323 7.9975-0.91194 11.442-3.0735 4.248-2.6407 7.7236-6.6783 10.844-10.97 3.8825-5.4167 6.9294-11.291 9.6049-17.118v-1e-5c3.186-6.9606 5.7391-13.835 7.949-20.361 2.6376-7.7872 4.7633-15.055 6.553-21.595s3.2431-12.351 4.4693-17.258c2.5575-11.385 4.4239-17.836 5.2825-17.724h1e-5l2e-3 3e-4 2e-3 3.2e-4h1e-5c0.85508 0.13371 0.59962 6.8251-0.57252 18.542-0.6292 5.0709-1.5326 11.08-2.8374 17.868s-3.0111 14.358-5.3138 22.516c-1.9261 6.8236-4.2827 14.085-7.3919 21.561v1e-5c-2.5896 6.2468-5.7402 12.722-9.9775 18.974-3.3354 4.9861-7.5856 9.9459-13.284 13.767-4.9588 3.298-11.091 5.1956-17.535 4.7842-5.2539-0.3856-10.588-0.78637-15.987-1.2017-9.9221-0.76324-19.618-1.5412-29-2.3242-6.0416-0.56176-11.436-2.987-15.773-6.299-5.091-3.8734-8.9787-8.5617-12.112-13.263-4.1766-6.2344-7.3668-12.601-9.9626-18.783s-4.5981-12.18-6.2845-17.784c-2.1736-7.1741-3.8101-13.813-5.0744-19.756s-2.1565-11.188-2.7854-15.607c-1.1939-10.155-1.4892-15.928-0.69882-16.075z" fill-rule="evenodd"/>
 <path d="m310.39 552.97c0.0163 2e-3 0.0321 8e-3 0.0474 0.0188 0.0149 0.0105 0.0293 0.0254 0.0432 0.0446 0.0277 0.0382 0.0537 0.0934 0.0777 0.16564 0.0475 0.14276 0.0875 0.35187 0.11937 0.62582v1e-5c0.0622 0.53439 0.0936 1.3166 0.0883 2.3366-0.0101 1.9274-0.14973 4.7075-0.47904 8.2728-0.28319 3.0694-0.70132 6.7256-1.335 10.92s-1.4816 8.9278-2.6814 14.133c-0.86363 3.7866-1.8917 7.8762-3.3103 12.16s-3.2263 8.7628-5.7826 13.245c-1.7369 3.0868-4.0044 6.2753-7.2842 8.9099-2.7058 2.1719-6.2603 3.615-10.238 3.5485-3.0972-0.0954-6.3508 0.0608-9.7704 0.23848-4.4218 0.23465-8.9895 0.56407-13.706 0.91244-10.501 0.77635-21.656 1.6733-33.435 2.3009-10.317 0.55479-21.194 1.0119-32.561 0.38436-4.1399-0.22177-8.4628-0.61048-12.884-1.5391-2.8965-0.50505-6.3266-1.508-9.6612-3.8722-2.6132-2.019-4.7158-4.4124-6.4118-6.8869l-1e-5 -2e-5c-2.0604-2.9672-3.732-6.1127-5.1421-9.2891-3.4506-7.759-5.7442-16.003-7.4537-24.308-1.9927-9.6034-3.246-19.491-3.9269-29.517-0.70572-10.341-0.80638-20.887-0.22217-31.532 0.0223-0.40908 0.0456-0.81841 0.07-1.228 0.58393-9.82 1.7556-19.551 3.7214-29.039 1.8156-8.8358 4.3716-17.601 8.2615-25.796 3.1201-6.7296 7.5169-13.294 13.79-18.148 2.8145-2.1387 6.0371-3.793 9.5226-4.7773 3.6614-1.0024 7.4078-1.2042 10.993-0.74171 4.5379 0.57248 8.9123 2 12.856 4.1793 3.9999 2.2319 7.4468 5.1204 10.331 8.3416 3.1984 3.5703 5.7684 7.4742 7.8716 11.453 2.4037 4.5348 4.2693 9.1823 5.7776 13.795 3.6062 11.034 5.4091 21.969 6.4407 32.315 1.2456 12.395 1.3653 24.095 0.92918 34.886-0.48638 12.101-1.6973 23.113-3.318 32.826v2e-5c-0.842 5.064-1.7865 9.807-2.8542 14.164s-2.257 8.3288-3.5221 11.885l-1e-5 1e-5c-1.203 3.3893-2.5217 6.4417-3.975 9.0258-0.61772 1.1224-1.2882 2.1984-2.0225 3.1537s-1.5316 1.7907-2.3766 2.4776c-0.72866 0.59801-1.5678 1.0636-2.4424 1.3207-0.89855 0.25648-1.7872 0.22151-2.5512-4e-3 -1.0351-0.32816-1.7339-0.8954-2.2324-1.4236-0.76106-0.79925-1.1429-1.5098-1.3562-2.0023s-0.24789-0.77831-0.14616-0.84567 0.34136 0.0867 0.73174 0.41493 0.92703 0.84554 1.6958 1.333c0.5001 0.31175 1.0952 0.62526 1.7282 0.67744 0.44009 0.0494 0.94027-0.0312 1.4044-0.24651 0.49058-0.21555 0.97364-0.61234 1.4725-1.1152 1.1983-1.2166 2.163-3.016 3.1659-5.2157 1.107-2.4995 2.0799-5.4386 2.9991-8.7816v-1e-5c0.96124-3.5066 1.8485-7.4032 2.6259-11.68s1.4433-8.934 2.0322-13.937l1e-5 -1e-5c1.1193-9.5648 1.8587-20.357 1.9288-32.19 0.0601-10.551-0.38926-21.909-1.8944-33.82-1.2661-9.9579-3.1857-20.29-6.7359-30.42-1.4792-4.2226-3.226-8.3813-5.4066-12.315-1.9144-3.4431-4.1204-6.7132-6.7568-9.5411-2.3615-2.5305-5.0488-4.7461-8.0274-6.3288-2.8988-1.5612-6.1604-2.5743-9.5168-2.9603-2.4616-0.27166-4.9602-0.12818-7.2439 0.54816-2.1949 0.61978-4.3285 1.7671-6.2717 3.248-4.5524 3.3821-7.9054 8.7649-10.763 14.657-3.4141 7.2284-5.6728 15.246-7.3962 23.596-1.829 8.9394-2.9208 18.195-3.4876 27.628-0.0236 0.39345-0.0463 0.78683-0.0682 1.1802-0.56304 10.228-0.48528 20.369 0.15685 30.325 0.62633 9.6598 1.766 19.108 3.5939 28.218 1.6026 7.917 3.61 15.508 6.6246 22.401 1.2293 2.8054 2.5741 5.4418 4.1736 7.7739l1e-5 2e-5c1.3464 1.9308 2.7445 3.6351 4.324 4.8311 1.1665 1.087 3.3806 1.5733 5.9424 2.2648 3.6742 0.84605 7.5389 1.2329 11.477 1.5243 10.772 0.77885 21.368 0.51762 31.623 0.194 11.645-0.37259 22.786-0.99347 33.341-1.4727 4.7365-0.21534 9.3725-0.40847 13.896-0.50324 3.4505-0.0753 6.921-0.1161 10.37 0.1048 1.9559 0.22015 4.1137-0.63147 5.9192-1.8908 2.3962-1.6826 4.2822-4.2092 5.992-6.8472 2.484-3.8888 4.334-7.9473 5.8684-11.924s2.7517-7.8722 3.8438-11.528c1.4803-4.9935 2.6358-9.5661 3.5949-13.631s1.7205-7.6234 2.3585-10.612c0.74045-3.4696 1.3059-6.1706 1.753-8.0336 0.23663-0.9859 0.43947-1.7363 0.6142-2.2425 0.0896-0.25949 0.17171-0.45451 0.24706-0.58407 0.0381-0.0656 0.0745-0.11434 0.10923-0.14614 0.0175-0.016 0.0345-0.0277 0.0511-0.0351s0.0339-0.0106 0.0502-9e-3z" fill-rule="evenodd"/>
 <path d="m447.61 293.02c0.0589 0.64355-10.251 2.2039-29.011 4.4266s-45.971 5.1075-79.753 8.4437-74.136 7.1238-119.23 11.2-94.918 8.4424-147.69 12.981h-3.3e-5c0.14618 13.608 0.28905 27.405 0.429 41.368 0.12802 12.773 0.25082 25.407 0.36905 37.885 78.121-4.6659 149.96-8.7814 209.77-11.88s107.57-5.1778 137.28-6.0066c21.553-1.6272 33.536-2.203 33.607-1.5134s-11.781 2.5796-33.303 5.4084c-29.762 2.3114-77.99 5.3009-138.7 8.5666s-133.91 6.8093-213.36 10.464c-0.24484-14.025-0.48995-28.249-0.7339-42.63-0.26669-15.721-0.5256-31.255-0.77532-46.547l3.5e-5 -1e-5c53.476-5.1794 104.07-9.9985 149.85-14.233s86.742-7.8846 121-10.771 61.8-5.01 80.786-6.2397 29.414-1.5661 29.473-0.92252z" fill-rule="evenodd"/>
 <path d="m424.54 305.71c2.7572-0.12532 5.7701 16.828 6.7253 37.843s-0.50724 38.172-3.2644 38.297-5.7701-16.828-6.7253-37.843 0.50724-38.172 3.2644-38.297z" fill-rule="evenodd"/>
 <path d="m58.835 316.09c-0.01738 1e-3 -0.0351-3e-3 -0.05315-0.0137s-0.0363-0.0351-0.0551-0.0636c-0.03739-0.0567-0.07648-0.1423-0.11713-0.25645-0.08043-0.22583-0.16703-0.56361-0.25888-1.0111-0.17943-0.87416-0.379-2.1677-0.5909-3.8646-0.40166-3.2165-0.8498-7.8847-1.2727-13.899-0.3666-5.2122-0.72054-11.438-0.97517-18.61s-0.41103-15.292-0.32766-24.289c0.06732-7.2832 0.28922-15.152 0.88819-23.556 0.48117-6.7779 1.1892-13.943 2.5496-21.402 0.96613-5.3991 2.2641-11.141 4.8448-16.8 0.91416-2.0241 2.1009-4.1055 3.7453-6.0503 1.2964-1.5706 3.0655-2.9945 5.3326-3.9312l3.3e-5 -1e-5c2.6076-1.0182 5.232-1.8527 7.7971-2.6708 4.3099-1.3783 8.7123-2.7081 13.187-4.0313 12.877-3.808 26.468-7.5784 40.664-11.383 37.134-9.9528 78.531-20.133 122.96-29.923 33.165-7.3096 68.037-14.427 104.14-20.77 14.919-2.621 29.69-5.0456 44.275-7.2571 24.736-3.7508 48.955-6.8693 72.456-9.1189 22.46-2.1514 44.304-3.5242 65.29-3.6589 11.411-0.06989 22.483 0.6236 33.175 1.5829 12.965 1.1609 25.432 2.7486 37.376 4.4924 14.351 2.0949 27.968 4.4163 40.797 6.7974s24.869 4.822 36.062 7.2c25.092 5.3302 45.945 10.378 61.8 14.478 7.2476 1.8745 13.452 3.5566 18.535 5.0024h1e-5c1.8152 0.51631 3.488 1.0026 5.0142 1.4579 0.44663 0.13322 0.88092 0.26384 1.3027 0.39199l0.69028 0.38876h1e-5l0.0856 0.027c7e-3 2e-3 0.0145 5e-3 0.0217 7e-3 3.0576 6.477 4.3327 9.8344 3.9973 10.002s-2.2476-2.8495-5.2392-8.458c-0.0146-3e-3 -0.0218-5e-3 -0.0289-6e-3l-0.0847-0.0157c4e-3 0.0715 0.0103 0.14515 0.0182 0.2209l-1.3301-0.26104-5.11-1.0164h-1e-5c-5.1719-1.0376-11.457-2.3214-18.779-3.8098-16.019-3.256-36.991-7.5141-62.136-12.129-11.219-2.0587-23.266-4.1942-36.074-6.2851s-26.377-4.1373-40.643-5.9737c-11.873-1.5281-24.216-2.9118-36.989-3.8813-10.546-0.79855-21.354-1.3485-32.354-1.1556-20.642 0.3535-42.189 1.9008-64.448 4.1767-23.28 2.382-47.307 5.5871-71.901 9.3756-14.503 2.2342-29.197 4.6643-44.047 7.2734-35.936 6.3141-70.698 13.302-103.81 20.395-44.355 9.5017-85.726 19.227-122.9 28.598-14.214 3.5834-27.801 7.105-40.67 10.643-4.4741 1.2302-8.8493 2.4562-13.112 3.7217-2.597 0.77406-5.0849 1.5009-7.4104 2.356l-1.2e-5 1e-5c-0.8297 0.23937-1.6799 0.97093-2.5325 1.855-1.0877 1.1756-1.9665 2.6956-2.7945 4.3444-2.3266 4.6869-3.6014 9.8904-4.71 15.066-1.4912 7.0758-2.3736 14.008-3.0578 20.651-0.84481 8.2233-1.3306 15.977-1.6747 23.186-0.4249 8.9051-0.62529 16.966-0.73979 24.102s-0.14206 13.345-0.16696 18.553c-0.02863 6.0089-0.04554 10.683-0.11951 13.917-0.03903 1.7058-0.09341 3.01-0.17053 3.8974-0.03948 0.45428-0.0849 0.79918-0.13713 1.0328-0.0264 0.11811-0.05455 0.20773-0.08454 0.2686-0.01508 0.0306-0.03062 0.0539-0.04664 0.07-0.01661 0.0124-0.0336 0.0192-0.05098 0.0203z" fill-rule="evenodd"/>
</svg>
