<?xml version="1.0" encoding="UTF-8"?>
<!DOCTYPE svg PUBLIC "-//W3C//DTD SVG 1.0//EN" "http://www.w3.org/TR/2001/REC-SVG-20010904/DTD/svg10.dtd">
<!-- Creator: CorelDRAW 2018 (64-Bit) -->
<svg xmlns="http://www.w3.org/2000/svg" xml:space="preserve" width="297mm" height="210mm" version="1.0" style="shape-rendering:geometricPrecision; text-rendering:geometricPrecision; image-rendering:optimizeQuality; fill-rule:evenodd; clip-rule:evenodd"
viewBox="0 0 29700 21000"
 xmlns:xlink="http://www.w3.org/1999/xlink">
 <defs>
  <style type="text/css">
   <![CDATA[
    .fil0 {fill:black;fill-rule:nonzero}
   ]]>
  </style>
 </defs>
 <g id="Слой_x0020_1">
  <metadata id="CorelCorpID_0Corel-Layer"/>
  <path class="fil0" d="M18659.36 6154.73l4.5 0c27.98,26.63 27.8,68.43 34.5,103.95 16.88,159.4 13.14,321.01 -6.86,479.98 -9.33,55.29 -15.94,113.96 -46.64,162.29 -64.52,85.72 -142.78,163.47 -186.11,263.18 -15.6,34.34 -20.6,72.32 -19.16,109.8 0.51,650.49 -0.09,1300.98 0.25,1951.47 66.9,32.48 122.44,92.59 134.14,167.97 119.04,0.34 238.17,0.17 357.21,0.08 0.6,-36.79 -1.95,-73.76 1.61,-110.39 7.72,-65.46 59.52,-119.55 120.57,-140.41 51.13,-18.48 106.24,-9.92 159.49,-11.78 61.21,2.03 126.5,-8.82 183.56,19.67 60.37,27.55 105.48,90.21 103.02,157.87 0,330.76 -0.08,661.43 0,992.19 -0.34,35.86 3.22,73.34 -10.77,107.34 -26.03,66.98 -95.3,111.41 -166.02,115.14 -45.1,1.95 -90.29,0.08 -135.49,0.76 -49.17,-0.34 -100.81,4.41 -146.76,-16.87 -62.32,-25.61 -108.36,-87.25 -110.22,-155.33 84.02,-54.6 167.96,-109.71 246.98,-171.44 23.24,-19.25 49.26,-37.39 62.92,-65.37 -59.52,6.61 -110.74,41.29 -163.82,66.3 -243.59,135.75 -495.67,255.47 -743.08,384.18 152.37,-30.61 310.07,-32.99 463.79,-10.86 97.85,15.35 197.39,39.09 282.18,92.51 50.11,31.54 95.47,82.92 93.69,145.66 0.08,456.5 0.16,913.08 0,1369.66 -264.03,-23.57 -528.23,-46.03 -793.11,-56.89 -0.17,45.62 -0.17,91.32 0,137.02 397.57,19.5 793.53,60.54 1190,94.88 125.06,12.63 232.49,92.58 307.69,189.5 106.84,137.27 170.85,301.93 221.97,466.58 120.41,404.02 159.74,826.01 193.32,1244.43 61.13,0.77 122.35,-1.44 183.57,1.45l0 1492c-4.58,84.79 -41.38,172.55 -114.04,220.62 -23.65,16.11 -52.4,23.24 -80.8,22.39 -136.77,0 -273.53,-0.35 -410.29,0.17 -38.24,121.67 -84.96,242.07 -154.15,349.83 -42.3,64.35 -94.28,126.67 -165.24,160.17 -26.04,6.52 -53.76,1.52 -80.3,3.39 -1.87,-2.71 -5.6,-8.31 -7.46,-11.02 102.34,-152.12 169.58,-325.33 215.36,-502.12 -31.8,0.17 -63.51,0 -95.14,0.68 -47.65,180.94 -118.1,359.67 -231.98,509.66l-135.15 5.01 -15.36 -0.28c19.11,-31.04 13.44,-22.36 26.81,-42.54 91.66,-144.91 152.96,-307.11 196.03,-472.53 -31.62,0.26 -63.17,0.17 -94.7,0.34 -38.33,146.26 -92.68,289.29 -170.43,419.44 -19.08,33.07 -43.16,62.92 -62.4,95.9l-133.88 0 -18.03 -0.45c4.78,-7.63 14.6,-22.7 29.13,-43.56 91.49,-144.64 152.45,-306.59 195.61,-471.58 -31.63,0.17 -63.25,0.08 -94.79,0.17 -39.94,151.94 -96.83,300.74 -179.75,434.62 -16.45,27.64 -37.73,52.06 -52.49,80.8l-470.66 0c-80.63,-4.41 -148.2,-55.88 -195.09,-118.11 -89.88,-117.69 -143.29,-258.26 -188.65,-397.91 -1632.59,-0.34 -3265.1,-0.17 -4897.68,-0.08 -45.62,139.22 -98.61,279.46 -188.06,396.97 -44.77,59.61 -107.69,108.53 -183.32,119.13l-483.71 0c-26.28,-46.63 -60.45,-88.35 -84.62,-136.25 -65.03,-119.3 -113.19,-247.58 -146.85,-379.09 -31.79,-0.17 -63.51,-0.17 -95.22,-0.08 43.25,163.97 103.53,325.07 194.25,469.12 13.49,22.17 12.92,22.44 23.2,46.3l-145.12 0c-26.96,-46.12 -60.54,-88.18 -84.88,-135.91 -65.28,-119.47 -113.11,-248.01 -147.36,-379.6 -31.62,0 -63.34,0 -94.96,0.09 42.99,162.11 102.17,321.34 191.2,464.12 17.26,24.98 16.69,31.17 32.45,51.3l-150.9 0c-27.56,-45.87 -60.63,-88.09 -85.13,-135.83 -65.54,-119.47 -112.94,-248.17 -147.62,-379.76 -31.62,0.17 -63.16,0.08 -94.79,0.17 48.16,180.42 115.65,358.56 223.51,512.29 -30.36,-0.34 -60.8,2.03 -91.07,-1.11 -68.42,-29.84 -119.38,-88.09 -160.84,-148.47 -74.45,-110.98 -123.03,-236.8 -163.3,-363.48 -135.32,0.09 -270.56,-0.17 -405.88,0.17 -28.57,1.02 -57.74,-4.58 -81.9,-20.43 -62.92,-39.85 -100.47,-110.74 -112.86,-182.8l0 -1532.71c59.69,-1.11 119.39,-0.26 179.07,-0.6 13.65,-166.43 27.22,-332.87 47.57,-498.63 36.96,-294.9 86.74,-590.8 188.14,-871.28 51.46,-137.95 115.99,-274.63 216.47,-384.09 71.56,-78.18 168.47,-137.78 275.72,-147.19 395.03,-34 789.55,-74.79 1185.59,-94.37 0,-45.62 0.09,-91.32 0,-137.02 -264.87,11.11 -529.16,33.15 -793.1,57.15 -0.34,-456.67 -0.09,-913.25 -0.09,-1369.92 -0.93,-41.88 19.08,-81.65 48.67,-110.39 63.85,-61.3 150.84,-89.96 235.03,-110.73 182.89,-41.04 374.51,-41.13 558.25,-5.01 -198.15,-101.32 -396.98,-201.45 -595.21,-302.69 -84.2,-46.55 -167.54,-95.39 -255.98,-133.71 -18.23,-8.23 -37.73,-12.97 -57.4,-16.11 17.98,39.09 57.74,60.62 89.45,87.33 71.14,53.08 145.07,102.34 219.77,150.33 -1.35,93.27 -86.82,167.97 -177.12,171.53 -67.66,1.86 -135.32,0.59 -202.98,0.68 -71.9,0.08 -144.48,-40.87 -174.75,-107.26 -17.64,-35.95 -14.24,-77.07 -14.33,-115.91 0.09,-313.63 0,-627.25 0,-940.88 0.51,-36.97 -3.65,-75.38 9.84,-110.57 18.74,-50.36 62.4,-89.11 112.6,-106.5 51.2,-18.31 106.49,-9.83 159.65,-11.69 57.49,2.12 117.85,-7.89 172.46,15 57.31,22.56 104.71,75.04 112.17,137.44 3.31,36.55 0.85,73.43 1.53,110.14 118.96,0.17 237.92,0 356.79,0.09 12.38,-74.87 66.81,-135.75 134.13,-167.63 0.85,-656.51 0,-1313.19 0.43,-1969.7 0.93,-40.45 -17.13,-77.92 -35.87,-112.6 -44.86,-80.38 -103.1,-152.02 -157.7,-225.7 -37.22,-47.99 -44.61,-110.48 -54.61,-168.48 -20.52,-152.45 -24.75,-307.19 -13.14,-460.56 5.76,-42.31 5.76,-88.61 28.74,-126 9.24,-16.62 23.49,2.04 29.26,11.11 139.3,214.25 278.01,428.94 417.06,643.36 56.55,86.74 103.11,182.13 121.08,284.81 9.5,51.04 6.96,103.18 7.21,154.82 0.09,654.73 -0.17,1309.38 0.09,1964.03 20.09,10.42 39.68,21.78 58.75,34.08 23.15,-403.5 47.06,-807.1 70.46,-1210.6 1.95,-52.74 51.72,-84.7 93.18,-107.76 113.02,-57.66 238.51,-84.54 361.88,-110.23 321.85,-61.55 649.13,-88.43 975.82,-109.04 586.98,-33.74 1175.66,-36.29 1763.08,-11.87 379.51,17.64 759.78,43.33 1134.71,107.09 143.37,26.79 289.04,54.6 421.99,116.84 45.36,23.82 101.74,54.94 106.92,111.84 23.65,404.6 47.48,809.21 70.71,1213.81 18.91,-12.29 38.41,-23.65 58.5,-34.08 0.34,-677.54 0.09,-1354.99 0.17,-2032.54 -0.42,-53.32 9.41,-106.32 26.29,-156.77 39.68,-121.49 116.15,-225.36 183.31,-332.62 100.3,-156.94 200.61,-313.97 300.91,-470.91 16.28,-25.01 30.44,-51.72 51.21,-73.51zm-3237.45 2082.47c-98.35,33.32 -180.6,110.65 -219.85,206.72 -42.06,100.13 -35.36,219.09 17.46,313.97 48.33,89.02 135.15,155.07 233.25,179.83 -0.17,33.66 0,67.4 -0.17,101.15 -222.56,10.86 -445.22,21.88 -667.87,32.39 -8.22,-42.9 -32.14,-83.09 -68.76,-107.68 -52.91,-37.48 -128.63,-37.73 -181.79,-0.6 -41.54,27.56 -67.32,74.96 -71.47,124.31 -184.5,8.56 -368.92,17.97 -553.33,26.62 0,-24.93 0,-49.86 -0.08,-74.7 83.93,-21.45 160.08,-72.41 210.27,-143.29 61.64,-84.95 83.01,-197.39 57.32,-299.13 -23.15,-95.13 -86.74,-179.24 -171.45,-228.25 -91.31,-53.93 -206.62,-64.27 -306.16,-27.81 -98.7,35.1 -180.26,114.8 -217.48,212.73 -36.04,92.25 -31.8,199.34 11.61,288.37 46.21,97.5 137.7,171.18 242.24,197.3 0.09,27.72 0,55.53 0,83.34 -90.55,4.41 -181.02,8.9 -271.49,13.14 -62.83,1.11 -120.49,58.51 -120.4,121.59 -16.96,440.89 -34.51,881.71 -51.64,1322.52 -132.43,87.42 -224.6,238.25 -224.34,399.01 -0.34,1087.06 -0.17,2174.04 -0.17,3261.11 1648.52,0 3297.06,0.08 4945.58,0 -0.08,-1053.15 0,-2106.22 -0.08,-3159.28 -0.51,-70.12 4.24,-141.51 -14.16,-209.93 -28.74,-118.88 -108.02,-221.05 -208.15,-289.21 -17.22,-441.15 -34.68,-882.22 -51.64,-1323.29 0.59,-63.42 -57.15,-121.16 -120.06,-122.43 -91.91,-4.33 -183.73,-8.82 -275.56,-13.39 0,-33.08 -0.08,-66.14 0.08,-99.21 87.93,-22.3 167.12,-77.5 217.06,-153.3 56.56,-83.85 75.12,-191.96 50.2,-289.97 -25.27,-102.85 -98.02,-192.47 -193.06,-239.01 -94.88,-47.58 -210.87,-50.12 -307.78,-6.79 -96.58,42.14 -172.97,128.03 -202.9,229.1 -31.12,100.9 -14.84,215.1 43.32,303.28 49.86,77.5 130.07,134.14 219.35,156.61 0.09,30.27 0,60.54 0,90.89 -184.67,-8.99 -369.25,-17.98 -553.92,-26.96 -3.64,-81.57 -76.65,-152.03 -158.38,-151.78 -78.68,-3.13 -150.67,59.1 -163.22,136.18 -222.65,-11.02 -445.22,-21.71 -667.79,-32.65 -0.08,-33.74 -0.08,-67.4 -0.08,-101.06 75.04,-19.25 144.05,-61.73 193.48,-121.59 62.75,-74.36 93.36,-174.67 82.75,-271.4 -10.93,-111.16 -76.81,-214.61 -171.94,-272.68 -90.9,-56.98 -207.56,-69.95 -308.8,-34.77zm-3526.41 1284.37c-19.16,4.58 -42.9,4.07 -55.71,21.45 31.21,12.97 65.04,16.96 98.36,21.37 69.69,8.73 139.73,14.07 209.77,19.32 0.16,191.55 0,383.17 0.08,574.7 118.36,60.45 236.9,120.49 355.43,180.51 0.08,-255.38 -0.08,-510.84 0.08,-766.31 172.63,-0.08 345.26,0.17 517.98,-0.08 1.52,-25.53 3.04,-50.96 4.4,-76.4 -289.29,-0.09 -578.5,-0.17 -867.8,0 -87.84,4.75 -175.68,12.21 -262.59,25.44zm6157.88 -25.53c1.19,25.44 2.71,50.96 4.41,76.49 172.63,0.16 345.26,0 517.97,0.08 0.09,255.47 -0.08,510.93 0.09,766.4 118.28,-59.36 235.54,-120.66 354.24,-179.08 2.37,-191.96 0.43,-384.08 1.02,-576.04 79.36,-6.36 158.81,-11.87 237.66,-23.32 24.75,-4.24 51.13,-6.45 72.32,-21.54 -59.18,-26.45 -126.08,-24.67 -189.33,-33.23 -115.4,-14.07 -231.72,-8.9 -347.63,-9.76 -216.89,0 -433.86,0.09 -650.75,0zm-6366.71 3470.96c-88.69,1.78 -177.38,4.41 -266.06,7.38 -24.42,0.94 -49.78,0.17 -72.84,10 -40.95,16.03 -70.28,54.95 -78.93,97.6 -22.3,157.62 -17.73,317.86 -0.77,475.74 9.16,57.06 59.44,105.9 118.02,108.1 452.69,16.79 906.05,17.56 1358.73,0.34 41.12,-0.5 80.04,-23.9 101.58,-58.58 29.25,-45.11 26.03,-101.07 34.17,-152.11 15.77,-124.05 6.36,-249.7 -13.74,-372.56 -11.62,-57.32 -61.98,-107.59 -122.43,-107.43 -352.38,-13.06 -705.18,-15.85 -1057.73,-8.48zm6960.74 -0.34c-105.74,2.21 -211.47,4.75 -317.02,9.16 -43.76,1.36 -83.6,29.59 -103.53,67.92 -22.89,43.24 -20.94,93.69 -28.24,140.83 -16.02,124.05 -6.69,249.7 13.32,372.73 10.85,56.38 59.09,107 118.61,108.61 452.43,17.63 905.62,16.45 1358.14,0.17 60.11,-0.42 112.93,-49.69 122.17,-108.27 16.96,-157.62 21.46,-317.45 -0.42,-474.81 -10.43,-57.91 -62.07,-107.26 -122.18,-107.43 -346.78,-12.97 -693.9,-15.77 -1040.85,-8.91zm-7215.19 864.59c-26.87,11.53 -41.97,44.59 -31.96,72.4 7.88,26.12 35.1,43.16 61.97,41.04 384.94,0 769.88,0 1154.82,0 32.47,2.8 63.67,-24.42 64.01,-57.23 2.29,-34.77 -30.52,-65.03 -64.78,-61.47 -381.62,-0.17 -763.35,0.17 -1144.97,-0.17 -13.14,0.25 -26.96,-0.6 -39.09,5.43zm6996.01 2.37c-49.6,24.16 -33.32,107.51 22.13,110.48 389.77,1.35 779.71,0.25 1169.48,0.51 31.8,2.03 61.3,-25.27 61.89,-57.15 2.03,-33.4 -28.57,-63.84 -61.98,-61.39 -384.25,-0.25 -768.6,0.09 -1152.94,-0.17 -13.31,-0.08 -27.13,0.43 -38.58,7.72zm-3774.25 1142.01c-63.33,3.56 -118.19,60.11 -119.54,123.7 -0.6,93.44 -0.34,186.96 -0.18,280.48 -0.42,69.95 64.19,131.08 134.06,127.35 559.34,0.08 1118.69,-0.08 1678.03,0.08 28.41,-0.25 58.08,2.13 84.87,-9.23 48.08,-18.58 82.42,-67.67 82.33,-119.3 0.34,-84.45 -0.16,-168.81 0.26,-253.18 0.25,-22.81 -0.17,-46.12 -9.08,-67.32 -18.74,-49.6 -69.95,-84.53 -123.03,-83.09 -575.87,0.25 -1151.84,-0.77 -1727.72,0.51zm832.96 -6686.28c149.39,-30.61 308.46,73.68 342.04,221.89 37.9,139.3 -43.5,296.08 -177.55,347.88 -127.35,54.69 -287.26,3.9 -361.11,-113.02 -75.97,-110.99 -61.3,-272.17 32.81,-367.98 43.33,-45.95 101.58,-77.75 163.81,-88.77zm-17.98 42.05c-56.89,15.95 -107.84,51.98 -142.01,100.22 -71.05,95.64 -62.66,239.44 19.07,326.18 78.69,90.39 221.98,113.03 324.57,50.79 108.53,-60.45 160,-203.58 112.94,-318.98 -44.35,-122.85 -189.08,-196.7 -314.57,-158.21zm-1703.04 60.12c147.28,-32.14 305.74,67.06 343.73,212.22 42.9,140.24 -36.97,302.18 -172.79,355.77 -126.6,55.79 -286.67,6.78 -361.63,-108.95 -77.32,-110.06 -64.6,-271.49 28.41,-368.4 42.73,-46.39 100.39,-78.77 162.28,-90.64zm-10.09 40.27c-59.77,15.69 -113.28,53.59 -148.3,104.54 -69.61,96.75 -58.84,240.38 24.09,325.93 79.53,88.52 221.72,109.37 323.21,47.06 104.8,-59.44 156.26,-196.12 114.71,-309.65 -40.52,-126.08 -185.94,-205.01 -313.71,-167.88zm3451.63 -41.63c135.74,-25.43 280.13,58.33 327.61,187.55 48.67,120.32 5.35,268.44 -99.36,344.66 -88.61,68.51 -216.81,79.45 -315.67,26.71 -106.58,-53.59 -173.73,-175.42 -160.08,-294.21 10.94,-130.58 118.03,-244.87 247.5,-264.71zm-17.47 41.63c-60.03,15.77 -113.78,53.93 -148.8,105.22 -70.29,98.27 -57.57,244.44 28.4,329.23 84.11,90.05 233.67,105.31 334.07,33.66 102.42,-67.06 143.88,-210.53 91.57,-321.6 -48.59,-114.37 -185.35,-180.93 -305.24,-146.51zm-3734.56 815.49c663.88,-33.83 1327.69,-67.41 1991.57,-101.07 0,361.2 0.09,722.4 -0.07,1083.59 -621.59,81.06 -1243.25,162.11 -1864.83,243.25 -55.28,7.13 -109.54,21.12 -161.78,40.45 11.71,-422.07 23.41,-844.15 35.11,-1266.22zm2176.58 -100.64c665.17,33.49 1330.24,67.06 1995.4,100.55 11.96,422.42 23.4,844.83 35.19,1267.24 -51.98,-19.5 -105.99,-33.66 -161.02,-40.95 -623.18,-81.9 -1246.46,-163.47 -1869.65,-245.46 0.08,-360.43 0,-720.95 0.08,-1081.38zm-1531.44 1645.65c36.55,-7.13 72.16,-20.02 109.38,-23.15 391.81,-0.17 783.7,-0.09 1175.5,0 -0.08,45.1 0.09,90.29 -0.08,135.49 -343.06,0 -686.02,0.08 -1029.07,0 0,-26.8 0,-53.59 0,-80.3 -60.96,-0.08 -121.93,-0.08 -182.89,0 -0.08,26.71 0,53.5 -0.08,80.3 -209.26,26.7 -418.52,53.07 -627.77,79.86 0,29.17 0,58.34 0,87.59 209.25,0.09 418.51,-0.08 627.85,0.09 0,55.45 0,110.9 0,166.43 -209.34,0 -418.6,0 -627.85,0 0,55.8 0,111.59 0,167.37 209.25,0.09 418.6,0 627.85,0.09 0,55.37 -0.08,110.82 0,166.27 -209.25,0.17 -418.51,0 -627.85,0.17 -0.09,55.7 0.08,111.5 -0.09,167.2 209.26,0.25 418.6,0.09 627.86,0.17 0.08,55.45 0.08,110.99 0,166.52 -209.26,0 -418.52,-0.08 -627.77,0.09 0.08,55.79 -0.09,111.49 0,167.37 209.34,0.09 418.6,-0.09 627.85,0.09 -0.08,55.36 0,110.81 0,166.26 -209.25,0.09 -418.51,-0.08 -627.85,0.09 0,55.79 0,111.58 0,167.46 209.25,0.08 418.51,-0.09 627.77,0 -0.09,55.53 0.34,111.07 -0.18,166.6 -209.25,-0.26 -418.42,-0.08 -627.59,-0.08 0,55.79 0,111.58 0,167.37 209.25,0.08 418.51,-0.09 627.85,0.08 -0.08,55.45 0,110.91 -0.08,166.44 -209.26,0 -418.52,-0.08 -627.77,0 0,55.79 0,111.58 0,167.46 209.25,0 418.6,-0.08 627.85,0 0,55.45 -0.08,110.9 0,166.44 -209.25,0.16 -418.51,-0.09 -627.85,0.08 -0.09,55.79 0,111.5 0,167.37 209.25,0.17 418.51,0 627.77,0 0.08,55.54 0.08,110.99 0,166.52 -209.26,0.09 -418.52,-0.08 -627.77,0.09 0.08,55.79 -0.09,111.58 0,167.37 209.34,0.09 418.6,-0.17 627.85,0.09 -0.08,26.7 -0.08,53.5 0,80.29 60.96,0 121.93,0 182.89,0 0,-26.88 0,-53.59 0,-80.29 343.05,-0.09 686.1,-0.18 1029.15,0 -0.08,45.1 0,90.29 0,135.4 -628.44,0.09 -1256.98,0.09 -1885.43,0.09 0,-982.27 -0.08,-1964.53 0,-2946.81 200.19,-46.62 400.37,-93.35 600.55,-139.97zm1594.69 -23.24c395.12,0.51 790.31,-0.93 1185.34,0.77 233.59,52.73 466.59,108.52 700.01,162.44 0.08,982.28 0,1964.54 0,2946.81 -628.45,0 -1256.9,0 -1885.35,0 0,-45.2 0,-90.39 0,-135.58 343.06,0 686.03,0 1029.08,0 0,26.71 -0.09,53.5 0,80.38 60.96,-0.09 121.92,0.17 182.96,-0.17 -0.08,-26.79 -0.08,-53.5 -0.08,-80.21 209.26,0 418.6,0.09 627.85,0 0,-55.87 0.09,-111.67 0,-167.46 -209.25,0 -418.5,0.09 -627.77,0 -0.08,-55.53 -0.08,-110.98 0,-166.44 209.27,0 418.52,0 627.77,0 0.09,-55.87 0,-111.66 0,-167.45 -209.25,-0.08 -418.5,0 -627.85,-0.08 0,-55.46 -0.08,-110.99 0.08,-166.44 209.27,0 418.52,0 627.77,0 0,-55.88 0,-111.67 0,-167.46 -209.25,0 -418.5,0 -627.77,0 -0.16,-55.45 -0.08,-110.99 0,-166.44 209.27,-0.08 418.52,0 627.77,-0.08 0,-55.79 0,-111.58 0,-167.37 -209.25,-0.09 -418.5,0 -627.77,0 -0.08,-55.54 -0.16,-111.07 0,-166.61 209.27,0.09 418.52,0.09 627.77,0.09 0,-55.88 0,-111.67 0,-167.46 -209.25,-0.09 -418.5,-0.09 -627.77,0 -0.08,-55.54 -0.08,-110.99 -0.08,-166.44 209.35,0 418.6,0 627.85,0 0.18,-55.7 -0.34,-111.33 0.34,-166.86 -209.42,-1.36 -418.76,-0.17 -628.11,-0.6 -0.08,-55.53 -0.08,-111.07 0,-166.52 209.27,-0.08 418.52,0 627.77,0 0.09,-55.87 0,-111.67 0,-167.37 -209.25,-0.09 -418.59,-0.09 -627.85,-0.09 0,-55.45 -0.08,-110.98 0.08,-166.44 209.27,0.09 418.52,0.09 627.77,0 0,-55.78 0,-111.57 0,-167.37 -209.25,0 -418.5,0 -627.77,0 -0.16,-55.45 -0.08,-110.98 0,-166.43 209.27,-0.09 418.52,0 627.77,-0.09 0,-29.25 0,-58.42 0,-87.59 -209.25,-26.87 -418.59,-53.07 -627.85,-79.95 0,-26.79 0,-53.5 0,-80.21 -60.96,-0.08 -121.92,-0.08 -182.8,-0.08 -0.17,26.79 -0.08,53.58 -0.08,80.38 -343.05,0 -686.02,0 -1029.08,0 0,-45.2 0,-90.39 0,-135.58zm-1338.96 303.12c343.05,-0.09 686.1,-0.09 1029.15,0 0,55.45 0,110.9 0,166.43 -343.05,0.09 -686.1,0 -1029.07,0 -0.17,-55.53 -0.08,-110.98 -0.08,-166.43zm1338.96 0c343.06,-0.09 686.03,-0.09 1029.08,0 0,55.45 -0.09,110.9 0,166.35 -342.97,0.17 -686.02,0 -1028.99,0.08 -0.17,-55.45 -0.09,-110.98 -0.09,-166.43zm-1338.96 333.8c343.05,0.09 686.1,0 1029.15,0.09 0,55.37 -0.08,110.82 0.09,166.27 -343.14,0.17 -686.19,0.08 -1029.24,0.08 0.08,-55.53 -0.09,-110.98 0,-166.44zm1339.05 0c342.97,0.09 686.02,-0.08 1028.99,0.09 -0.09,55.45 0,110.9 0,166.35 -343.05,0 -686.02,0.09 -1029.08,0 0,-55.53 -0.08,-110.98 0.09,-166.44zm-1339.05 500.42c0.17,-55.62 -0.51,-111.15 0.42,-166.78 342.88,0.52 685.77,0.09 1028.65,0.26 0.08,55.45 0.08,110.99 0,166.52 -343.06,0 -686.02,0.09 -1029.07,0zm1338.96 -166.52c343.06,0 686.03,0 1029.08,0 0,55.45 0,110.99 0,166.52 -343.05,0 -686.02,0 -1029.08,0 0,-55.53 0,-111.07 0,-166.52zm-1338.96 333.98c343.05,0 686.1,-0.09 1029.15,0.09 0,55.36 0,110.81 0,166.26 -343.05,0.09 -686.1,0 -1029.15,0 0,-55.45 0,-110.9 0,-166.35zm1338.96 0c343.06,0 686.03,0 1029.08,0 0,55.45 0,110.9 0,166.44 -343.05,-0.09 -686.02,-0.09 -1029.08,0 0,-55.54 0,-110.99 0,-166.44zm-1338.88 333.9c342.97,0 686.02,0 1029.07,0 0,55.45 0,110.9 0,166.43 -343.05,0.17 -686.1,0 -1029.15,0.09 0,-55.54 -0.09,-111.07 0.08,-166.52zm1338.97 0c342.97,0.08 686.02,-0.09 1028.99,0.08 -0.09,55.45 0,110.9 0,166.44 -343.05,0 -686.02,0 -1029.08,0 0,-55.54 -0.08,-111.07 0.09,-166.52zm-1339.05 333.97c343.14,0.34 686.35,-0.93 1029.49,0.6 -0.76,55.28 -0.17,110.56 -0.34,165.84 -343.05,0 -686.1,-0.08 -1029.07,0 -0.17,-55.53 -0.08,-110.99 -0.08,-166.44zm1338.96 0c343.06,-0.08 686.03,-0.08 1029.08,0 0,55.45 -0.09,110.91 0,166.36 -342.97,0.16 -686.02,0 -1028.99,0.08 -0.17,-55.45 -0.09,-110.99 -0.09,-166.44zm-4018.34 292.61c327.53,-6.53 655.24,-5.69 982.69,5.76 59.26,-0.34 109.46,49.09 119.72,105.82 13.4,85.38 23.31,172.46 11.96,258.68 -7.47,49.52 -4.84,104.55 -36.3,146.6 -23.14,33.49 -63.67,52.06 -103.95,50.96 -390.19,12.89 -780.72,12.12 -1170.91,-0.34 -62.32,1.27 -117.69,-51.04 -123.88,-112.34 -7.88,-87.93 -15.26,-176.53 -6.7,-264.71 4.5,-39.26 2.13,-80.97 21.03,-116.84 19.08,-37.9 58.33,-65.37 100.98,-67.49 68.43,-3.13 136.93,-4.49 205.36,-6.1zm-200.61 54.17c-34.85,0.68 -64.01,29.59 -70.63,62.83 -16.95,111.75 -13.22,225.54 -0.42,337.54 5.42,35.44 37.9,65.12 74.44,64.44 186.45,6.7 372.99,9.16 559.6,9.75 0.09,-161.52 0.09,-322.96 0,-484.39 -187.63,0.42 -375.44,2.71 -562.99,9.83zm626.32 474.48c185.61,-0.26 371.13,-2.63 556.56,-9.76 29.67,0 55.96,-21.02 66.89,-47.9 12.04,-32.22 11.62,-67.4 16.88,-100.98 11.36,-82.5 2.2,-165.84 -10.6,-247.5 -5.85,-34.16 -33.49,-66.73 -69.78,-68.17 -186.53,-7.37 -373.24,-9.41 -559.86,-10.08 -0.16,161.51 0,322.95 -0.09,484.39zm6544.44 -529.25c318.88,-5.77 637.94,-4.92 956.74,6.53 56.3,0.68 105.39,45.96 116.42,100.22 18.65,117.86 14.84,238.17 1.35,356.36 -9.07,56.56 -60.19,103.96 -118.11,104.71 -395.11,12.89 -790.64,13.66 -1185.75,0 -57.83,-0.5 -106.58,-48.24 -117.44,-103.35 -14.41,-87.5 -23.99,-176.87 -12.12,-265.3 7.21,-55.29 6.44,-119.04 50.96,-159.74 30.77,-32.39 77.49,-35.02 119.29,-34.51 62.92,-2.04 125.75,-3.73 188.66,-4.92zm-285.4 86.99c-20.43,29.59 -18.31,67.24 -23.91,101.32 -9.41,67.16 -8.9,135.33 0.6,202.48 5.25,33.15 3.64,70.12 24.59,98.44 13.64,19.5 37.05,30.94 60.87,30.52 184.08,6.78 368.32,9.33 552.48,9.5 0.08,-161.44 0.08,-322.88 0,-484.31 -186.11,0.42 -372.3,2.8 -558.33,9.83 -22.72,0.68 -43.83,13.48 -56.3,32.22zm677.96 -42.05c0,161.43 -0.08,322.87 0.09,484.31 187.98,-0.51 375.95,-2.8 563.84,-9.92 37.81,-1.02 68.68,-35.02 71.39,-71.82 7.8,-87.42 14.84,-175.59 5.68,-263.26 -3.9,-29.93 -1.36,-61.98 -15.77,-89.45 -12.29,-23.32 -36.88,-39.77 -63.51,-40.11 -187.12,-6.95 -374.42,-9.41 -561.72,-9.75zm-4683.33 -3.05c343.05,0 686.1,-0.08 1029.15,0 0,55.45 0,110.9 0,166.44 -343.05,0.08 -686.1,0 -1029.15,0 0,-55.46 -0.09,-110.99 0,-166.44zm1339.05 0c342.97,0.08 686.02,-0.17 1029.07,0.08 -0.17,55.45 -0.08,110.9 -0.08,166.36 -343.05,0 -686.02,0 -1029.08,0 0,-55.46 -0.08,-110.99 0.09,-166.44zm-1339.05 333.97c343.05,-0.08 686.01,0 1029.07,0 0.08,55.46 0.08,110.99 0,166.44 -342.97,0 -686.02,0.09 -1029.07,0 0,-55.53 0,-110.98 0,-166.44zm1338.96 0c343.06,-0.08 686.03,0 1029.08,0 0,55.46 0,110.91 0,166.44 -343.05,0 -686.02,0 -1029.08,0 0,-55.53 0,-110.98 0,-166.44z"/>
 </g>
</svg>
